PathFileType	4	(x/y/z)	S08_BK_Cal_T01
DataRate	CameraRate	NumFrames	NumMarkers	Units	OrigDataRate	OrigDataStartFrame	OrigNumFrames
240	240	10	51	mm	240	1	2400
Frame#	Time	Sternum			R.Acromium			L.Acromium			Top.Head			R.ASIS			L.ASIS			R.PSIS			L.PSIS			R.Great.Tro			L.Great.Tro			R.Iliac.Crest			L.Iliac.Crest			V.Sacral			R.Thigh.Upper.Post			R.Thigh.Lower.Ant			R.Thigh.Lower.Post			R.Thigh.Upper.Ant			R.Knee.Lat			R.Knee.Med			R.Shank.Upper.Post			R.Shank.Lower.Ant			R.Shank.Lower.Post			R.Shank.Upper.Ant			R.Ankle.Lat			R.Ankle.Med			R.Heel.Upper			R.Heel.Med			R.Heel.Lat			R.Toe.Lat			R.Toe.Med			R.Toe.Tip			L.Thigh.Upper.Post			L.Thigh.Lower.Ant			L.Thigh.Lower.Post			L.Thigh.Upper.Ant			L.Knee.Lat			L.Knee.Med			L.Shank.Upper.Post			L.Shank.Lower.Ant			L.Shank.Lower.Post			L.Shank.Upper.Ant			L.Ankle.Lat			L.Ankle.Med			L.Heel.Upper			L.Heel.Med			L.Heel.Lat			L.Toe.Lat			L.Toe.Med			L.Toe.Tip			Cervical.Spine			Back			
		X1	Y1	Z1	X2	Y2	Z2	X3	Y3	Z3	X4	Y4	Z4	X5	Y5	Z5	X6	Y6	Z6	X7	Y7	Z7	X8	Y8	Z8	X9	Y9	Z9	X10	Y10	Z10	X11	Y11	Z11	X12	Y12	Z12	X13	Y13	Z13	X14	Y14	Z14	X15	Y15	Z15	X16	Y16	Z16	X17	Y17	Z17	X18	Y18	Z18	X19	Y19	Z19	X20	Y20	Z20	X21	Y21	Z21	X22	Y22	Z22	X23	Y23	Z23	X24	Y24	Z24	X25	Y25	Z25	X26	Y26	Z26	X27	Y27	Z27	X28	Y28	Z28	X29	Y29	Z29	X30	Y30	Z30	X31	Y31	Z31	X32	Y32	Z32	X33	Y33	Z33	X34	Y34	Z34	X35	Y35	Z35	X36	Y36	Z36	X37	Y37	Z37	X38	Y38	Z38	X39	Y39	Z39	X40	Y40	Z40	X41	Y41	Z41	X42	Y42	Z42	X43	Y43	Z43	X44	Y44	Z44	X45	Y45	Z45	X46	Y46	Z46	X47	Y47	Z47	X48	Y48	Z48	X49	Y49	Z49	X50	Y50	Z50	X51	Y51	Z51	

1	0	507.71	1157.4	316.87	420.93	1415.6	484.62	422.2	1437.4	150.53	429.83	1734.6	334.51	421.54	944.31	429.02	431.62	941.09	195.84	235.53	1023	346.87	244.54	1026	252.76	334.84	873.08	502.74	324.46	875.69	120.09	348.04	1037.8	468.45	370.57	1044.5	167.01	213.61	989.25	297.2	382.99	678.77	517.21	494.32	613.06	507.04	423.91	596.61	508.18	459.47	701.86	514.29	495.3	510.72	509.55	482.28	495.88	383.8	399.91	346.68	528.97	446.51	269.53	516.15	382.88	270.74	527.55	465.1	345.16	518.81	341.34	104.27	509.72	374.86	110.46	430.84	292.02	64.867	463.5	306.28	38.871	436.89	294.64	41.557	497.87	466.5	32.102	557.72	491.99	44.912	440.36	550.95	57.39	495.52	381.65	671.69	104.05	496.85	619.38	105.06	431.68	595.46	108.48	450.15	695.53	96.386	484.62	506.95	108.19	501.24	493.01	228.64	394.98	349.32	95.111	440.52	247.56	103.05	375.37	277.98	104.76	454.79	322.78	94.494	352.71	104.88	102.19	379.66	102.11	186.36	295.39	74.377	150.24	313.41	42.727	179.62	301.13	47.975	116.25	474.63	39.072	67.697	502.71	45.627	179.9	561.84	61.382	126.84	359.61	1477.8	307.98	276.37	1209.5	320.25
2	0.0041667	507.72	1157.4	316.87	420.93	1415.6	484.66	422.22	1437.4	150.56	429.8	1734.7	334.61	421.57	944.32	428.99	431.65	941.1	195.84	235.55	1023	346.92	244.71	1026	252.85	334.88	873.13	502.76	324.48	875.73	120.11	348.1	1037.9	468.48	370.6	1044.5	167.02	213.62	989.29	297.23	383.03	678.8	517.23	494.33	613.09	507.12	423.94	596.65	508.2	459.51	701.87	514.34	495.32	510.77	509.57	482.3	495.9	383.81	400.06	346.59	528.87	446.54	269.55	516.28	382.84	270.79	527.65	465.13	345.17	518.92	341.38	104.28	509.75	374.83	110.49	430.89	291.98	64.981	463.43	306.28	38.888	436.94	294.66	41.586	497.92	466.51	32.108	557.71	491.95	44.891	440.39	551.17	57.717	495.12	381.66	671.74	104.09	496.85	619.37	105.09	431.71	595.46	108.49	450.17	695.54	96.437	484.65	506.98	108.2	501.25	493.04	228.68	395.01	349.39	95.122	440.51	247.55	103.07	375.38	278.02	104.83	454.78	322.71	94.525	352.54	104.96	102.12	379.74	102.1	186.34	295.36	74.522	150.24	313.14	42.598	179.61	301.13	47.998	116.32	474.66	39.099	67.703	502.69	45.618	179.95	561.83	61.381	126.85	359.59	1477.8	308.03	276.41	1209.5	320.29
3	0.0083333	507.73	1157.5	316.88	420.93	1415.7	484.7	422.24	1437.5	150.58	429.76	1734.8	334.71	421.6	944.33	428.97	431.69	941.12	195.84	235.57	1023.1	346.97	244.88	1025.9	252.94	334.91	873.17	502.78	324.51	875.76	120.12	348.16	1037.9	468.5	370.62	1044.5	167.03	213.62	989.32	297.25	383.07	678.83	517.25	494.35	613.12	507.19	423.97	596.69	508.21	459.54	701.88	514.39	495.33	510.81	509.58	482.32	495.93	383.82	400.2	346.5	528.78	446.57	269.57	516.41	382.8	270.85	527.75	465.17	345.19	519.03	341.41	104.3	509.79	374.8	110.52	430.94	291.94	65.094	463.36	306.28	38.906	436.99	294.67	41.616	497.98	466.52	32.113	557.7	491.9	44.871	440.42	551.4	58.043	494.72	381.67	671.78	104.13	496.86	619.36	105.12	431.74	595.46	108.51	450.19	695.55	96.488	484.67	507.01	108.21	501.26	493.08	228.71	395.04	349.46	95.134	440.5	247.55	103.09	375.39	278.05	104.89	454.76	322.65	94.556	352.37	105.03	102.05	379.82	102.08	186.31	295.32	74.664	150.25	312.88	42.472	179.59	301.13	48.02	116.38	474.69	39.125	67.709	502.67	45.61	179.99	561.83	61.38	126.85	359.58	1477.8	308.09	276.46	1209.6	320.33
4	0.0125	507.74	1157.5	316.89	420.92	1415.7	484.74	422.25	1437.5	150.6	429.73	1734.8	334.81	421.63	944.35	428.95	431.72	941.13	195.85	235.59	1023.1	347.02	245.04	1025.9	253.03	334.94	873.22	502.8	324.53	875.8	120.14	348.21	1038	468.52	370.65	1044.6	167.04	213.63	989.36	297.28	383.11	678.86	517.27	494.36	613.14	507.27	424	596.74	508.23	459.57	701.89	514.43	495.35	510.84	509.6	482.33	495.96	383.83	400.33	346.41	528.7	446.6	269.6	516.53	382.76	270.91	527.85	465.2	345.21	519.13	341.44	104.32	509.82	374.77	110.54	430.99	291.9	65.202	463.28	306.29	38.922	437.04	294.68	41.644	498.03	466.53	32.119	557.68	491.86	44.851	440.44	551.63	58.367	494.32	381.68	671.82	104.17	496.86	619.35	105.14	431.77	595.45	108.52	450.2	695.56	96.538	484.69	507.04	108.22	501.26	493.11	228.74	395.07	349.52	95.146	440.49	247.55	103.12	375.4	278.09	104.95	454.75	322.59	94.587	352.22	105.11	101.98	379.9	102.06	186.28	295.29	74.8	150.25	312.63	42.354	179.58	301.13	48.042	116.44	474.72	39.151	67.714	502.65	45.602	180.04	561.82	61.379	126.86	359.56	1477.9	308.14	276.5	1209.6	320.36
5	0.016667	507.75	1157.5	316.9	420.92	1415.8	484.78	422.27	1437.6	150.63	429.69	1734.9	334.9	421.66	944.36	428.93	431.75	941.15	195.85	235.6	1023.2	347.07	245.19	1025.9	253.11	334.98	873.26	502.82	324.56	875.84	120.16	348.27	1038.1	468.54	370.67	1044.6	167.05	213.64	989.4	297.3	383.14	678.89	517.29	494.37	613.17	507.34	424.02	596.78	508.24	459.6	701.9	514.47	495.36	510.88	509.61	482.34	495.98	383.84	400.45	346.34	528.62	446.63	269.62	516.64	382.73	270.96	527.94	465.22	345.23	519.22	341.47	104.33	509.85	374.75	110.56	431.03	291.87	65.303	463.22	306.29	38.939	437.08	294.69	41.671	498.08	466.53	32.124	557.67	491.82	44.833	440.47	551.86	58.689	493.93	381.69	671.86	104.21	496.86	619.34	105.17	431.79	595.45	108.54	450.22	695.57	96.587	484.7	507.07	108.24	501.27	493.14	228.78	395.09	349.58	95.158	440.48	247.54	103.14	375.41	278.12	105.01	454.73	322.53	94.616	352.07	105.18	101.92	379.98	102.05	186.26	295.26	74.927	150.25	312.4	42.245	179.57	301.13	48.062	116.49	474.75	39.176	67.72	502.63	45.596	180.08	561.81	61.379	126.87	359.55	1477.9	308.19	276.55	1209.7	320.4
6	0.020833	507.77	1157.5	316.91	420.91	1415.8	484.82	422.28	1437.7	150.65	429.65	1735	334.98	421.68	944.38	428.91	431.78	941.17	195.86	235.62	1023.2	347.11	245.33	1025.9	253.19	335.01	873.3	502.83	324.58	875.88	120.18	348.32	1038.1	468.56	370.69	1044.6	167.06	213.64	989.43	297.33	383.17	678.92	517.31	494.38	613.19	507.4	424.05	596.81	508.26	459.63	701.92	514.51	495.37	510.91	509.62	482.35	496.01	383.84	400.56	346.27	528.55	446.65	269.64	516.74	382.69	271.02	528.02	465.25	345.24	519.31	341.5	104.35	509.88	374.72	110.58	431.07	291.83	65.397	463.16	306.29	38.954	437.12	294.69	41.697	498.12	466.54	32.129	557.67	491.78	44.816	440.5	552.09	59.006	493.55	381.7	671.9	104.24	496.86	619.33	105.19	431.82	595.46	108.55	450.23	695.58	96.633	484.72	507.1	108.25	501.27	493.17	228.81	395.11	349.64	95.17	440.46	247.54	103.16	375.42	278.15	105.07	454.72	322.48	94.644	351.93	105.25	101.87	380.05	102.04	186.24	295.23	75.044	150.25	312.2	42.146	179.56	301.13	48.08	116.54	474.78	39.199	67.724	502.62	45.591	180.12	561.81	61.379	126.88	359.53	1477.9	308.24	276.59	1209.7	320.43
7	0.025	507.78	1157.6	316.92	420.9	1415.9	484.85	422.29	1437.7	150.67	429.6	1735	335.05	421.7	944.4	428.9	431.81	941.19	195.86	235.63	1023.3	347.16	245.45	1025.9	253.26	335.03	873.34	502.85	324.6	875.91	120.2	348.36	1038.2	468.58	370.72	1044.7	167.07	213.65	989.47	297.35	383.2	678.95	517.33	494.39	613.22	507.45	424.06	596.85	508.27	459.65	701.93	514.54	495.38	510.95	509.63	482.35	496.03	383.85	400.65	346.21	528.49	446.67	269.66	516.84	382.66	271.06	528.1	465.27	345.26	519.38	341.53	104.36	509.91	374.7	110.6	431.11	291.8	65.481	463.1	306.29	38.969	437.16	294.7	41.721	498.16	466.55	32.134	557.66	491.75	44.8	440.52	552.31	59.312	493.19	381.7	671.93	104.27	496.86	619.32	105.22	431.83	595.46	108.56	450.24	695.58	96.677	484.73	507.12	108.26	501.27	493.19	228.84	395.13	349.69	95.182	440.45	247.54	103.18	375.42	278.18	105.12	454.7	322.43	94.67	351.81	105.31	101.82	380.11	102.02	186.22	295.2	75.148	150.25	312.02	42.058	179.55	301.13	48.096	116.59	474.8	39.221	67.729	502.61	45.588	180.15	561.8	61.38	126.88	359.51	1478	308.29	276.63	1209.8	320.45
8	0.029167	507.78	1157.6	316.94	420.88	1415.9	484.88	422.29	1437.8	150.69	429.56	1735.1	335.12	421.72	944.41	428.89	431.84	941.21	195.87	235.64	1023.3	347.19	245.56	1025.9	253.32	335.05	873.38	502.87	324.62	875.95	120.22	348.4	1038.2	468.6	370.74	1044.7	167.08	213.65	989.5	297.37	383.23	678.98	517.34	494.39	613.24	507.5	424.08	596.88	508.28	459.67	701.94	514.57	495.38	510.97	509.64	482.35	496.06	383.85	400.73	346.16	528.44	446.68	269.68	516.92	382.64	271.1	528.17	465.28	345.27	519.44	341.55	104.38	509.93	374.68	110.62	431.14	291.78	65.555	463.06	306.29	38.982	437.19	294.7	41.742	498.2	466.55	32.138	557.65	491.72	44.786	440.54	552.53	59.602	492.85	381.71	671.96	104.3	496.85	619.32	105.24	431.85	595.46	108.58	450.25	695.59	96.718	484.73	507.15	108.28	501.26	493.22	228.87	395.14	349.74	95.194	440.43	247.54	103.2	375.42	278.2	105.16	454.69	322.4	94.695	351.7	105.37	101.77	380.17	102.01	186.2	295.18	75.241	150.26	311.87	41.981	179.55	301.13	48.109	116.63	474.82	39.241	67.732	502.6	45.586	180.18	561.79	61.382	126.89	359.49	1478	308.33	276.66	1209.8	320.48
9	0.033333	507.79	1157.6	316.95	420.86	1416	484.91	422.3	1437.8	150.72	429.51	1735.2	335.18	421.74	944.43	428.88	431.86	941.23	195.88	235.66	1023.3	347.23	245.66	1025.9	253.38	335.07	873.42	502.89	324.64	875.99	120.23	348.44	1038.3	468.62	370.76	1044.8	167.09	213.66	989.53	297.39	383.25	679	517.36	494.39	613.25	507.54	424.09	596.91	508.29	459.69	701.95	514.6	495.38	511	509.64	482.34	496.08	383.85	400.8	346.11	528.4	446.69	269.7	516.98	382.61	271.14	528.22	465.29	345.29	519.5	341.57	104.39	509.95	374.66	110.63	431.17	291.75	65.62	463.02	306.29	38.993	437.22	294.71	41.761	498.23	466.56	32.142	557.64	491.69	44.774	440.56	552.73	59.868	492.54	381.71	671.99	104.33	496.85	619.31	105.26	431.86	595.46	108.59	450.25	695.6	96.757	484.73	507.17	108.29	501.26	493.24	228.9	395.15	349.78	95.206	440.42	247.54	103.21	375.42	278.23	105.2	454.67	322.36	94.717	351.61	105.42	101.74	380.22	102	186.19	295.16	75.321	150.26	311.73	41.916	179.54	301.13	48.121	116.66	474.84	39.258	67.735	502.59	45.587	180.2	561.78	61.384	126.89	359.47	1478	308.36	276.69	1209.8	320.5
10	0.0375	507.8	1157.7	316.97	420.84	1416	484.94	422.3	1437.9	150.73	429.47	1735.2	335.24	421.76	944.45	428.88	431.88	941.25	195.88	235.66	1023.4	347.26	245.75	1025.9	253.42	335.09	873.45	502.9	324.66	876.02	120.25	348.47	1038.3	468.64	370.78	1044.8	167.1	213.66	989.56	297.4	383.27	679.02	517.37	494.39	613.27	507.57	424.09	596.94	508.3	459.7	701.96	514.62	495.38	511.02	509.64	482.33	496.1	383.85	400.85	346.08	528.36	446.7	269.71	517.04	382.59	271.17	528.27	465.29	345.3	519.54	341.58	104.4	509.97	374.65	110.64	431.19	291.73	65.675	462.98	306.29	39.003	437.24	294.71	41.778	498.26	466.56	32.145	557.64	491.67	44.764	440.57	552.92	60.109	492.26	381.71	672.02	104.36	496.85	619.31	105.28	431.86	595.47	108.61	450.26	695.61	96.792	484.73	507.19	108.31	501.25	493.26	228.92	395.15	349.81	95.218	440.4	247.54	103.23	375.42	278.24	105.23	454.66	322.33	94.738	351.53	105.46	101.71	380.26	101.99	186.18	295.14	75.389	150.26	311.62	41.86	179.54	301.13	48.13	116.69	474.85	39.275	67.738	502.59	45.588	180.22	561.78	61.387	126.9	359.45	1478.1	308.4	276.72	1209.9	320.52
